<?xml version="1.0" encoding="UTF-8" standalone="no" ?>
<!DOCTYPE svg PUBLIC "-//W3C//DTD SVG 1.1//EN" "http://www.w3.org/Graphics/SVG/1.1/DTD/svg11.dtd">
<svg xmlns="http://www.w3.org/2000/svg" xmlns:xlink="http://www.w3.org/1999/xlink" version="1.1" width="1080" height="1080" viewBox="0 0 1080 1080" xml:space="preserve">
<desc>Created with Fabric.js 5.2.4</desc>
<defs>
</defs>
<rect x="0" y="0" width="100%" height="100%" fill="transparent"></rect>
<g transform="matrix(1 0 0 1 540 540)" id="88f88c74-32a6-452a-89bf-648f969754dc"  >
<rect style="stroke: none; stroke-width: 1; stroke-dasharray: none; stroke-linecap: butt; stroke-dashoffset: 0; stroke-linejoin: miter; stroke-miterlimit: 4; fill: rgb(255,255,255); fill-rule: nonzero; opacity: 1; visibility: hidden;" vector-effect="non-scaling-stroke"  x="-540" y="-540" rx="0" ry="0" width="1080" height="1080" />
</g>
<g transform="matrix(1 0 0 1 540 540)" id="c5903618-7d0c-4903-8c99-e1cadad636d9"  >
</g>
<g transform="matrix(15.14 0 0 15.14 540 503.8)"  >
<g style="" vector-effect="non-scaling-stroke"   >
		<g transform="matrix(1 0 0 1 -14 0.09)"  >
<path style="stroke: none; stroke-width: 1; stroke-dasharray: none; stroke-linecap: butt; stroke-dashoffset: 0; stroke-linejoin: miter; stroke-miterlimit: 4; fill: rgb(0,0,0); fill-rule: nonzero; opacity: 1;" vector-effect="non-scaling-stroke"  transform=" translate(-10, -24.09)" d="M 19 36 L 19 12 C 18.996435634287824 10.73174508144079 18.195728697358447 9.602748300370365 17 9.18 L 17 11 C 17 13.209138999323173 15.209138999323173 15 13 15 L 7 15 C 4.790861000676826 15 3 13.209138999323173 3 11 L 3 9.18 C 1.8042713026415549 9.602748300370365 1.0035643657121742 10.731745081440792 1.0000000000000002 12.000000000000002 L 1 36 C 1 37.65685424949238 2.3431457505076194 39 4 39 L 16 39 C 17.65685424949238 39 19 37.65685424949238 19 36 Z M 7.05 24.68 C 9.15 18.37 9 18 10 18 C 11 18 10.85 18.38 12.95 24.68 C 13.126731119945854 25.204670512339252 12.844670512339254 25.773268880054147 12.32 25.95 C 11.795329487660746 26.126731119945855 11.226731119945853 25.844670512339256 11.049999999999999 25.32 L 11 25 C 8.79 25 9.129999999999999 24.89 9 25.32 C 8.823268880054146 25.858477631085023 8.243477631085023 26.151731119945854 7.705 25.975 C 7.1665223689149755 25.798268880054145 6.873268880054146 25.218477631085022 7.05 24.68 Z M 15 36 L 5 36 C 4.447715250169207 36 4 35.5522847498308 4 35 C 4 34.4477152501692 4.447715250169207 34 5 34 L 15 34 C 15.552284749830793 34 16 34.4477152501692 16 35 C 16 35.55228474983079 15.552284749830793 36 15 36 Z" stroke-linecap="round" />
</g>
		<g transform="matrix(1 0 0 1 -14 -1.42)"  >
<polygon style="stroke: none; stroke-width: 1; stroke-dasharray: none; stroke-linecap: butt; stroke-dashoffset: 0; stroke-linejoin: miter; stroke-miterlimit: 4; fill: rgb(0,0,0); fill-rule: nonzero; opacity: 1;" vector-effect="non-scaling-stroke"  points="0,-0.42 -0.28,0.42 0.28,0.42 0,-0.42 " />
</g>
		<g transform="matrix(1 0 0 1 2 0)"  >
<path style="stroke: none; stroke-width: 1; stroke-dasharray: none; stroke-linecap: butt; stroke-dashoffset: 0; stroke-linejoin: miter; stroke-miterlimit: 4; fill: rgb(0,0,0); fill-rule: nonzero; opacity: 1;" vector-effect="non-scaling-stroke"  transform=" translate(-26, -24)" d="M 7 13 L 13 13 C 14.104569499661586 13 15 12.104569499661586 15 11 L 15 9 L 5 9 L 5 11 C 5 12.104569499661586 5.8954305003384135 13 7 13 z M 45 9.18 L 45 11 C 45 13.209138999323173 43.20913899932317 15 41 15 L 35 15 C 32.79086100067683 15 31 13.209138999323173 31 11 L 31 9.18 C 29.804271302641556 9.602748300370365 29.003564365712172 10.731745081440792 29 12.000000000000002 L 29 36 C 29 37.65685424949238 30.34314575050762 39 32 39 L 44 39 C 45.65685424949238 39 47 37.65685424949238 47 36 L 47 12 C 46.99643563428783 10.73174508144079 46.19572869735845 9.602748300370365 45 9.18 z M 35 19 C 35 18.447715250169207 35.4477152501692 18 36 18 L 38.5 18 C 39.446930146134704 18 40.31258794215959 18.535005940569697 40.736067977499786 19.381966011250103 C 41.15954801283999 20.22892608193051 41.06815808768083 21.242455883092234 40.5 22 C 41.06815808768082 22.757544116907766 41.15954801283999 23.77107391806949 40.736067977499786 24.618033988749893 C 40.31258794215959 25.4649940594303 39.446930146134704 26 38.5 26 L 36 26 C 35.4477152501692 26 35 25.552284749830793 35 25 z M 43 36 L 33 36 C 32.4477152501692 36 32 35.5522847498308 32 35 C 32 34.4477152501692 32.4477152501692 34 33 34 L 43 34 C 43.5522847498308 34 44 34.4477152501692 44 35 C 44 35.55228474983079 43.5522847498308 36 43 36 z" stroke-linecap="round" />
</g>
		<g transform="matrix(1 0 0 1 2.52 0)"  >
<path style="stroke: none; stroke-width: 1; stroke-dasharray: none; stroke-linecap: butt; stroke-dashoffset: 0; stroke-linejoin: miter; stroke-miterlimit: 4; fill: rgb(0,0,0); fill-rule: nonzero; opacity: 1;" vector-effect="non-scaling-stroke"  transform=" translate(-26.52, -24)" d="M 39 23.5 C 39 22.87 38.4 23 37 23 L 37 24 C 38.51 24 39 24.12 39 23.5 z M 39 20.5 C 39 19.87 38.4 20 37 20 L 37 21 C 38.51 21 39 21.12 39 20.5 z M 33 11 C 33 12.104569499661586 33.89543050033841 13 35 13 L 41 13 C 42.10456949966159 13 43 12.104569499661586 43 11 L 43 9 L 33 9 z M 36.4 41.17 C 28.920951876952767 46.27332439125217 19.079048123047226 46.273324391252174 11.599999999999994 41.17 C 11.14160365764044 40.86072054009476 10.519279459905244 40.98160365764044 10.209999999999999 41.44 C 9.900720540094754 41.89839634235956 10.021603657640439 42.52072054009476 10.479999999999997 42.83 C 18.62668997448161 48.3724868893541 29.33331002551839 48.37248688935409 37.480000000000004 42.83 C 37.855666705751034 42.502570373457324 37.932925231031696 41.94851875241446 37.661162760658414 41.530809770174045 C 37.38940029028513 41.11310078793363 36.85156583317465 40.95923014338621 36.4 41.17 z M 11.6 6.83 C 19.07904812304723 1.7266756087478328 28.92095187695275 1.726675608747831 36.399999999999984 6.829999999999989 C 36.858396342359555 7.139279459905244 37.48072054009475 7.018396342359558 37.79 6.559999999999999 C 38.09927945990524 6.10160365764044 37.97839634235955 5.479279459905244 37.519999999999996 5.17 C 29.373310025518382 -0.3724868893540991 18.6666899744816 -0.37248688935409824 10.519999999999985 5.1700000000000035 C 10.144333294248947 5.497429626542674 10.067074768968281 6.051481247585547 10.338837239341567 6.469190229825968 C 10.610599709714855 6.88689921206639 11.14843416682535 7.040769856613807 11.6 6.83 z" stroke-linecap="round" />
</g>
</g>
</g>
<g transform="matrix(1.98 0 0 1.98 335.6 471.35)" id="01eef7a6-2013-48f0-bf0e-f492ac09ccab"  >
<rect style="stroke: rgb(0,0,0); stroke-width: 0; stroke-dasharray: none; stroke-linecap: butt; stroke-dashoffset: 0; stroke-linejoin: miter; stroke-miterlimit: 4; fill: rgb(0,0,0); fill-rule: nonzero; opacity: 1;" vector-effect="non-scaling-stroke"  x="-33.0835" y="-33.0835" rx="0" ry="0" width="66.167" height="66.167" />
</g>
<g transform="matrix(2.51 0 0 2.51 764.67 484.84)" id="01eef7a6-2013-48f0-bf0e-f492ac09ccab"  >
<rect style="stroke: rgb(0,0,0); stroke-width: 0; stroke-dasharray: none; stroke-linecap: butt; stroke-dashoffset: 0; stroke-linejoin: miter; stroke-miterlimit: 4; fill: rgb(0,0,0); fill-rule: nonzero; opacity: 1;" vector-effect="non-scaling-stroke"  x="-33.085" y="-33.085" rx="0" ry="0" width="66.17" height="66.17" />
</g>
<g transform="matrix(NaN NaN NaN NaN 0 0)"  >
<g style=""   >
</g>
</g>
<g transform="matrix(NaN NaN NaN NaN 0 0)"  >
<g style=""   >
</g>
</g>
<g transform="matrix(NaN NaN NaN NaN 0 0)"  >
<g style=""   >
</g>
</g>
<g transform="matrix(1.86 0 0 2.52 327.17 558.25)" id="249307dc-6d6c-4bd6-b77f-b89d974c6aab"  >
<path style="stroke: rgb(0,0,0); stroke-width: 0; stroke-dasharray: none; stroke-linecap: butt; stroke-dashoffset: 0; stroke-linejoin: miter; stroke-miterlimit: 4; fill: rgb(255,255,255); fill-rule: nonzero; opacity: 1;" vector-effect="non-scaling-stroke"  transform=" translate(-61.43, -29.9)" d="M 20.72 8.03 L 20.72 4.92 L 3.79 6.54 C 0.53 6.9 -0.14 5.78 0.02 4.59 C 0.43 1.64 2 2.33 4.25 2.45 L 20.71 3.2800000000000002 L 20.71 1.16 C 20.71 0.5199999999999999 21.23 0 21.87 0 L 22.85 0 C 23.490000000000002 0 24.01 0.52 24.01 1.16 L 24.01 3.2699999999999996 L 40.52 1.8 C 42.77 1.6800000000000002 44.34 0.99 44.75 3.95 C 44.91 5.13 44.24 6.26 40.98 5.890000000000001 L 24.03 4.92 L 24.03 8.03 L 25.26 8.03 C 26.14 8.03 26.860000000000003 8.75 26.860000000000003 9.629999999999999 L 26.860000000000003 15.399999999999999 L 96.01 15.399999999999999 L 96.01 9.68 C 96.01 8.78 96.75 8.03 97.66000000000001 8.03 L 98.83000000000001 8.03 L 98.83000000000001 4.92 L 81.9 6.54 C 78.63000000000001 6.91 77.97 5.78 78.13000000000001 4.6 C 78.54 1.6399999999999997 80.11000000000001 2.34 82.36000000000001 2.4499999999999997 L 98.82000000000002 3.28 L 98.82000000000002 1.16 C 98.82000000000002 0.5199999999999999 99.34000000000002 0 99.98000000000002 0 L 100.96000000000002 0 C 101.60000000000002 0 102.12000000000002 0.52 102.12000000000002 1.16 L 102.12000000000002 3.2699999999999996 L 118.61000000000001 1.7999999999999996 C 120.86000000000001 1.6799999999999997 122.43 0.9899999999999995 122.84000000000002 3.9499999999999993 C 123.00000000000001 5.129999999999999 122.33000000000001 6.26 119.07000000000002 5.889999999999999 L 102.12000000000002 4.919999999999999 L 102.12000000000002 8.03 L 103.35000000000002 8.03 C 104.23000000000002 8.03 104.95000000000002 8.75 104.95000000000002 9.629999999999999 L 104.95000000000002 15.399999999999999 L 118.80000000000001 15.399999999999999 C 120.47000000000001 15.399999999999999 121.84000000000002 16.77 121.84000000000002 18.439999999999998 L 121.84000000000002 18.439999999999998 C 121.84000000000002 20.11 120.47000000000001 21.479999999999997 118.80000000000001 21.479999999999997 L 93.85 21.479999999999997 C 91.53 24.769999999999996 84.91 26.039999999999996 75.19 25.859999999999996 C 78.50999999999999 28.959999999999997 81.71 32.459999999999994 84.72999999999999 36.629999999999995 C 88.74 42.019999999999996 92.10999999999999 47.699999999999996 93.99 54.00999999999999 C 94.64 61.28999999999999 87.3 60.05999999999999 84.91999999999999 58.63999999999999 C 81.42999999999999 58.199999999999996 81.43999999999998 52.599999999999994 81.15999999999998 47.419999999999995 C 80.90999999999998 42.849999999999994 80.41999999999999 38.42999999999999 76.91999999999999 35.06999999999999 C 75.18999999999998 33.41 72.77999999999999 31.989999999999995 69.52999999999999 30.869999999999994 C 68.75999999999999 31.609999999999992 67.82999999999998 32.279999999999994 66.75999999999999 32.88999999999999 C 61.75999999999999 35.71999999999999 57.099999999999994 36.49999999999999 53.209999999999994 30.39999999999999 C 50.93999999999999 31.069999999999993 48.989999999999995 32.08999999999999 47.339999999999996 33.42999999999999 C 40.65 38.82999999999999 40.9 46.349999999999994 40.559999999999995 54.57999999999999 C 39.739999999999995 60.29999999999999 27.209999999999994 63.03999999999999 28.229999999999997 53.669999999999995 C 28.429999999999996 51.809999999999995 29.279999999999998 50.129999999999995 30.459999999999997 48.53999999999999 C 35.08 39.55999999999999 40.44 31.75999999999999 47.05 25.98999999999999 C 38.56999999999999 26.16999999999999 31.999999999999996 24.929999999999993 28.349999999999998 21.48999999999999 L 3.13 21.48999999999999 C 1.46 21.48999999999999 0.08999999999999986 20.11999999999999 0.08999999999999986 18.449999999999992 L 0.08999999999999986 18.449999999999992 C 0.08999999999999986 16.779999999999994 1.46 15.409999999999993 3.13 15.409999999999993 L 17.9 15.409999999999993 L 17.9 9.68 C 17.9 8.78 18.639999999999997 8.03 19.549999999999997 8.03 L 20.72 8.03 L 20.72 8.03 z M 58.44 23.91 L 63.5 23.91 C 64.25 23.91 64.86 24.52 64.86 25.27 L 64.86 25.27 C 64.86 26.02 64.25 26.63 63.5 26.63 L 58.44 26.63 C 57.699999999999996 26.63 57.08 26.02 57.08 25.27 L 57.08 25.27 C 57.09 24.52 57.7 23.91 58.44 23.91 L 58.44 23.91 z" stroke-linecap="round" />
</g>
<g transform="matrix(1.69 0 0 2.72 753.55 558.13)" id="9c52abfb-6f1a-4658-9bf2-cad5f6ba41dd"  >
<path style="stroke: rgb(0,0,0); stroke-width: 0; stroke-dasharray: none; stroke-linecap: butt; stroke-dashoffset: 0; stroke-linejoin: miter; stroke-miterlimit: 4; fill: rgb(255,255,255); fill-rule: nonzero; opacity: 1;" vector-effect="non-scaling-stroke"  transform=" translate(-61.43, -29.9)" d="M 20.72 8.03 L 20.72 4.92 L 3.79 6.54 C 0.53 6.9 -0.14 5.78 0.02 4.59 C 0.43 1.64 2 2.33 4.25 2.45 L 20.71 3.2800000000000002 L 20.71 1.16 C 20.71 0.5199999999999999 21.23 0 21.87 0 L 22.85 0 C 23.490000000000002 0 24.01 0.52 24.01 1.16 L 24.01 3.2699999999999996 L 40.52 1.8 C 42.77 1.6800000000000002 44.34 0.99 44.75 3.95 C 44.91 5.13 44.24 6.26 40.98 5.890000000000001 L 24.03 4.92 L 24.03 8.03 L 25.26 8.03 C 26.14 8.03 26.860000000000003 8.75 26.860000000000003 9.629999999999999 L 26.860000000000003 15.399999999999999 L 96.01 15.399999999999999 L 96.01 9.68 C 96.01 8.78 96.75 8.03 97.66000000000001 8.03 L 98.83000000000001 8.03 L 98.83000000000001 4.92 L 81.9 6.54 C 78.63000000000001 6.91 77.97 5.78 78.13000000000001 4.6 C 78.54 1.6399999999999997 80.11000000000001 2.34 82.36000000000001 2.4499999999999997 L 98.82000000000002 3.28 L 98.82000000000002 1.16 C 98.82000000000002 0.5199999999999999 99.34000000000002 0 99.98000000000002 0 L 100.96000000000002 0 C 101.60000000000002 0 102.12000000000002 0.52 102.12000000000002 1.16 L 102.12000000000002 3.2699999999999996 L 118.61000000000001 1.7999999999999996 C 120.86000000000001 1.6799999999999997 122.43 0.9899999999999995 122.84000000000002 3.9499999999999993 C 123.00000000000001 5.129999999999999 122.33000000000001 6.26 119.07000000000002 5.889999999999999 L 102.12000000000002 4.919999999999999 L 102.12000000000002 8.03 L 103.35000000000002 8.03 C 104.23000000000002 8.03 104.95000000000002 8.75 104.95000000000002 9.629999999999999 L 104.95000000000002 15.399999999999999 L 118.80000000000001 15.399999999999999 C 120.47000000000001 15.399999999999999 121.84000000000002 16.77 121.84000000000002 18.439999999999998 L 121.84000000000002 18.439999999999998 C 121.84000000000002 20.11 120.47000000000001 21.479999999999997 118.80000000000001 21.479999999999997 L 93.85 21.479999999999997 C 91.53 24.769999999999996 84.91 26.039999999999996 75.19 25.859999999999996 C 78.50999999999999 28.959999999999997 81.71 32.459999999999994 84.72999999999999 36.629999999999995 C 88.74 42.019999999999996 92.10999999999999 47.699999999999996 93.99 54.00999999999999 C 94.64 61.28999999999999 87.3 60.05999999999999 84.91999999999999 58.63999999999999 C 81.42999999999999 58.199999999999996 81.43999999999998 52.599999999999994 81.15999999999998 47.419999999999995 C 80.90999999999998 42.849999999999994 80.41999999999999 38.42999999999999 76.91999999999999 35.06999999999999 C 75.18999999999998 33.41 72.77999999999999 31.989999999999995 69.52999999999999 30.869999999999994 C 68.75999999999999 31.609999999999992 67.82999999999998 32.279999999999994 66.75999999999999 32.88999999999999 C 61.75999999999999 35.71999999999999 57.099999999999994 36.49999999999999 53.209999999999994 30.39999999999999 C 50.93999999999999 31.069999999999993 48.989999999999995 32.08999999999999 47.339999999999996 33.42999999999999 C 40.65 38.82999999999999 40.9 46.349999999999994 40.559999999999995 54.57999999999999 C 39.739999999999995 60.29999999999999 27.209999999999994 63.03999999999999 28.229999999999997 53.669999999999995 C 28.429999999999996 51.809999999999995 29.279999999999998 50.129999999999995 30.459999999999997 48.53999999999999 C 35.08 39.55999999999999 40.44 31.75999999999999 47.05 25.98999999999999 C 38.56999999999999 26.16999999999999 31.999999999999996 24.929999999999993 28.349999999999998 21.48999999999999 L 3.13 21.48999999999999 C 1.46 21.48999999999999 0.08999999999999986 20.11999999999999 0.08999999999999986 18.449999999999992 L 0.08999999999999986 18.449999999999992 C 0.08999999999999986 16.779999999999994 1.46 15.409999999999993 3.13 15.409999999999993 L 17.9 15.409999999999993 L 17.9 9.68 C 17.9 8.78 18.639999999999997 8.03 19.549999999999997 8.03 L 20.72 8.03 L 20.72 8.03 z M 58.44 23.91 L 63.5 23.91 C 64.25 23.91 64.86 24.52 64.86 25.27 L 64.86 25.27 C 64.86 26.02 64.25 26.63 63.5 26.63 L 58.44 26.63 C 57.699999999999996 26.63 57.08 26.02 57.08 25.27 L 57.08 25.27 C 57.09 24.52 57.7 23.91 58.44 23.91 L 58.44 23.91 z" stroke-linecap="round" />
</g>
<g transform="matrix(1 0 0 1 328.98 421.05)" style="" id="6f3ba000-eedb-46fb-94d8-af3f823f8ee6"  >
		<text xml:space="preserve" font-family="Raleway" font-size="105" font-style="normal" font-weight="900" style="stroke: none; stroke-width: 1; stroke-dasharray: none; stroke-linecap: butt; stroke-dashoffset: 0; stroke-linejoin: miter; stroke-miterlimit: 4; fill: rgb(255,255,255); fill-rule: nonzero; opacity: 1; white-space: pre;" ><tspan x="-28.72" y="32.98" >1</tspan></text>
</g>
<g transform="matrix(1 0 0 1 759.02 422.28)" style=""  >
		<text xml:space="preserve" font-family="Raleway" font-size="105" font-style="normal" font-weight="900" style="stroke: none; stroke-width: 1; stroke-dasharray: none; stroke-linecap: butt; stroke-dashoffset: 0; stroke-linejoin: miter; stroke-miterlimit: 4; fill: rgb(255,255,255); fill-rule: nonzero; opacity: 1; white-space: pre;" ><tspan x="-31.45" y="32.98" >2</tspan></text>
</g>
</svg>